
<svg width="44" height="44" fill="none" xmlns="http://www.w3.org/2000/svg"><path fill-rule="evenodd" clip-rule="evenodd" d="M12.323 5h19.354A7.323 7.323 0 0 1 39 12.323v19.354A7.323 7.323 0 0 1 31.677 39H12.323A7.323 7.323 0 0 1 5 31.677V12.323A7.323 7.323 0 0 1 12.323 5Zm2.005 4.531a1.214 1.214 0 1 0-.751.324c1.846 3.047 4.857 4.545 8.404 4.545 3.534-.005 6.664-1.511 8.528-4.543a1.214 1.214 0 1 0-.798-.29c-1.87 2.54-4.681 4.018-7.728 4.023-3.074 0-5.801-1.482-7.655-4.059Zm10.185 15.865 1.021-3.064h.744l1.021 3.064.996-3.062h.946l-1.563 4.454h-.762l-1.022-2.926-1.023 2.926h-.755l-1.567-4.454h.97l.994 3.062Zm-6.383 1.39 1.981-4.453h.798l.017.026 1.963 4.426h-.956l-.404-.927h-2.058l-.027.065-.383.862h-.931Zm16.329-.003v-4.45h.9v4.45h-.9Zm-25.814.006v-4.455h.912v1.797h2.06v-1.797h.913v4.455h-.913v-1.81h-2.06v1.81h-.912Zm8.108-1.904v-2.55h.913v2.514c0 1.276-.71 2.008-1.947 2.008-1.225 0-1.928-.718-1.928-1.972v-2.547h.912v2.517c0 .744.365 1.142 1.028 1.142.66 0 1.022-.387 1.022-1.112Zm13.224 1.901v-4.45h3.309v.812h-2.41v.912h1.66v.812h-1.66v1.103h2.497v.811h-3.396Zm-8.829-1.834-.65-1.492-.642 1.492-.043.103h1.38l-.045-.103Z" fill="#fff" fill-opacity=".9"/></svg>