
<svg width="48" height="49" fill="none" xmlns="http://www.w3.org/2000/svg"><path fill-rule="evenodd" clip-rule="evenodd" d="M31.806 4.5a8.678 8.678 0 0 1-2.013 6.252 7.428 7.428 0 0 1-5.846 2.74 8.26 8.26 0 0 1 2.066-6.02A8.98 8.98 0 0 1 31.806 4.5Zm7.178 13.304a8.848 8.848 0 0 0-4.257 7.437c.004 3.437 2.08 6.54 5.273 7.878a19.566 19.566 0 0 1-2.743 5.539c-1.615 2.396-3.309 4.737-5.997 4.78-1.279.03-2.142-.335-3.041-.715-.938-.396-1.916-.81-3.445-.81-1.623 0-2.644.427-3.629.838-.851.355-1.675.7-2.837.747-2.56.094-4.516-2.557-6.19-4.931-3.347-4.848-5.952-13.661-2.46-19.658a9.611 9.611 0 0 1 8.08-4.885c1.452-.03 2.845.525 4.067 1.011.934.373 1.768.704 2.45.704.6 0 1.411-.318 2.356-.69 1.488-.586 3.308-1.302 5.164-1.11a9.17 9.17 0 0 1 7.209 3.865Z" fill="#fff"/></svg>