
<svg width="32" height="32" fill="none" xmlns="http://www.w3.org/2000/svg"><g clip-path="url(#a)"><path opacity=".4" d="M6 11.2V13h20v-1.8c0-1.12 0-1.68-.218-2.108a2 2 0 0 0-.874-.874C24.48 8 23.92 8 22.8 8H9.2c-1.12 0-1.68 0-2.108.218a2 2 0 0 0-.874.874C6 9.52 6 10.08 6 11.2Z" fill="#F6F7F7"/><path d="M6 13h20M6 13v-1.8c0-1.12 0-1.68.218-2.108a2 2 0 0 1 .874-.874C7.52 8 8.08 8 9.2 8h13.6c1.12 0 1.68 0 2.108.218a2 2 0 0 1 .874.874C26 9.52 26 10.08 26 11.2v7.6c0 1.12 0 1.68-.218 2.108a2 2 0 0 1-.874.874C24.48 22 24.12 22 23 22M6 13v5m9 7 3-3m0 0-3-3m3 3H6" stroke="#F6F7F7" stroke-width="2" stroke-linecap="round" stroke-linejoin="round"/></g><defs><clipPath id="a"><rect width="32" height="32" rx="8" fill="#fff"/></clipPath></defs></svg>