
<svg width="40" height="40" fill="none" xmlns="http://www.w3.org/2000/svg"><path opacity=".4" d="M16.588 33c2.996 0 6.72-1.286 7.989-2.571C32.192 30.429 36 25.186 36 19.5c0-5.785-3.808-10.929-11.423-10.929C23.307 7.286 19.634 6 16.588 6 9.084 6 3 12.044 3 19.5S9.084 33 16.588 33Z" fill="url(#a)" fill-opacity=".8"/><path d="M12.832 23.1c0 1.74 1.42 3.15 3.17 3.15h2.945c1.876 0 3.397-1.511 3.397-3.375s-1.52-3.375-3.397-3.375H16.23c-1.876 0-3.397-1.511-3.397-3.375s1.521-3.375 3.397-3.375h2.945c1.75 0 3.17 1.41 3.17 3.15m-4.756-5.175v17.55m7.003-20.346A13.592 13.592 0 0 0 17.588 6C10.084 6 4 12.044 4 19.5S10.084 33 17.588 33c2.562 0 4.958-.704 7.003-1.929m0-23.142c3.946 2.362 6.585 6.66 6.585 11.571 0 4.91-2.639 9.21-6.585 11.571m0-23.142h.762C31.785 7.929 37 13.109 37 19.5c0 6.39-5.215 11.571-11.647 11.571h-.762" stroke="url(#b)" stroke-width="2.5" stroke-linecap="round" stroke-linejoin="round"/><defs><linearGradient id="a" x1="3.717" y1="6" x2="40.686" y2="21.049" gradientUnits="userSpaceOnUse"><stop stop-color="#393939" stop-opacity=".27"/><stop offset="1" stop-color="#fff" stop-opacity=".38"/></linearGradient><linearGradient id="b" x1="3.746" y1="6.018" x2="35.793" y2="41.269" gradientUnits="userSpaceOnUse"><stop stop-color="#D9D9D9"/><stop offset="1" stop-color="#4D4D51"/></linearGradient></defs></svg>