
<svg width="40" height="40" fill="none" xmlns="http://www.w3.org/2000/svg"><path opacity=".4" d="M37 20c0 8.837-7.163 16-16 16S5 28.837 5 20 12.163 4 21 4s16 7.163 16 16Z" fill="url(#a)" fill-opacity=".8"/><path d="m2 17.333 3.552 3.556 3.555-3.556M5.02 20c0-8.837 7.16-16 15.99-16C29.841 4 37 11.163 37 20s-7.159 16-15.99 16c-5.866 0-10.995-3.161-13.777-7.874 0 0-.599-1.005-1.023-1.972m15.165-13.255h1.8c2.689 0 3.825 1.826 3.825 1.826M21.375 12.9h-1.648c-2.196 0-3.977 1.59-3.977 3.55 0 1.961 1.78 3.551 3.977 3.551h1.648m0-7.1v-2.746m0 2.745V20m0 0h1.534c2.197 0 3.977 1.59 3.977 3.55 0 1.961-1.78 3.55-3.977 3.55h-1.534m0-7.1v7.1m0 0h-1.913c-2.69 0-3.712-1.825-3.712-1.825m5.625 1.826v2.745" stroke="url(#b)" stroke-width="2" stroke-linecap="round" stroke-linejoin="round"/><defs><linearGradient id="a" x1="5.696" y1="4" x2="43.312" y2="16.529" gradientUnits="userSpaceOnUse"><stop stop-color="#393939" stop-opacity=".27"/><stop offset="1" stop-color="#fff" stop-opacity=".38"/></linearGradient><linearGradient id="b" x1="37.269" y1="35.979" x2="-.88" y2="-1.574" gradientUnits="userSpaceOnUse"><stop stop-color="#D9D9D9"/><stop offset="1" stop-color="#4D4D51"/></linearGradient></defs></svg>
