<svg width="28" height="20" fill="none" xmlns="http://www.w3.org/2000/svg"><rect x=".25" y=".25" width="27.5" height="19.5" rx="1.75" fill="#fff" stroke="#F5F5F5" stroke-width=".5"/><mask id="a" style="mask-type:luminance" maskUnits="userSpaceOnUse" x="0" y="0" width="28" height="20"><rect x=".25" y=".25" width="27.5" height="19.5" rx="1.75" fill="#fff" stroke="#fff" stroke-width=".5"/></mask><g mask="url(#a)"><path fill="#E3283E" d="M18.666 0h9.333v20h-9.333z"/><path fill-rule="evenodd" clip-rule="evenodd" d="M0 20h9.333V0H0v20Z" fill="#128A60"/><path d="M12 9.333a.667.667 0 0 0-1.333 0h1.334Zm.33 2.885a.667.667 0 1 0 .669-1.153l-.67 1.153Zm2.746-1.198a.667.667 0 0 0 .719 1.123l-.719-1.123Zm2.258-1.687a.667.667 0 0 0-1.333 0h1.333Zm-6.667 0c0 1.233.67 2.31 1.663 2.885l.669-1.153A1.999 1.999 0 0 1 12 9.333h-1.334Zm5.128 2.81a3.331 3.331 0 0 0 1.539-2.81h-1.333c0 .708-.367 1.33-.925 1.687l.719 1.123Z" fill="#8C9157"/><path fill-rule="evenodd" clip-rule="evenodd" d="M14 10.667c.736 0 1.333-.896 1.333-2 0-1.105-.597-2-1.334-2-.736 0-1.333.895-1.333 2 0 1.104.597 2 1.333 2Z" fill="#C59262"/></g></svg>