<svg width="52" height="53" fill="none" xmlns="http://www.w3.org/2000/svg"><path d="m28.27 22.24-1.71-3.738c-.18-.394-.27-.59-.392-.654a.365.365 0 0 0-.336 0c-.122.063-.212.26-.392.654h0l-1.71 3.739h0a.925.925 0 0 1-.118.22.392.392 0 0 1-.121.095.799.799 0 0 1-.23.054l-3.822.603c-.403.064-.604.096-.697.202a.444.444 0 0 0-.104.345c.018.145.164.298.455.605l2.765 2.908c.086.09.129.136.157.19.024.047.04.1.046.154a.996.996 0 0 1-.023.254h0l-.653 4.107c-.069.433-.103.65-.038.778.056.112.156.19.272.214.133.026.313-.076.673-.28l3.417-1.94c.107-.061.16-.092.216-.104.05-.01.1-.01.15 0 .056.012.11.043.216.103l3.417 1.94c.36.205.54.307.674.28a.394.394 0 0 0 .272-.213c.064-.128.03-.345-.039-.778h0l-.652-4.107a.99.99 0 0 1-.024-.254.444.444 0 0 1 .047-.154c.027-.054.07-.1.157-.19l2.764-2.908h0c.292-.307.438-.46.455-.605a.444.444 0 0 0-.104-.345c-.093-.106-.294-.138-.696-.202l-3.822-.603a.8.8 0 0 1-.23-.054.394.394 0 0 1-.122-.096c-.039-.045-.065-.103-.119-.22h0Z" stroke="#2A2B30" stroke-width="2" stroke-linecap="round" stroke-linejoin="round"/><path d="M37.746 16.211a.69.69 0 0 0 .204.138.597.597 0 0 0 .204.036.717.717 0 0 0 .238-.061c.935-.34 3.435-1.478 3.897-4.033.46-2.552-1.486-4.455-2.247-5.088a.716.716 0 0 0-.203-.138.597.597 0 0 0-.204-.036.719.719 0 0 0-.239.061c-.935.34-3.434 1.478-3.896 4.033-.461 2.552 1.486 4.455 2.246 5.088Z" fill="url(#a)" fill-opacity=".8"/><path d="M46.571 24.526c-1.705 1.983-4.445 1.753-5.434 1.592-.114-.019-.17-.028-.242-.065a.598.598 0 0 1-.162-.135.71.71 0 0 1-.108-.224c-.335-.928-1.035-3.514.665-5.493 1.705-1.983 4.445-1.753 5.435-1.592.113.019.17.028.241.065a.596.596 0 0 1 .162.135.71.71 0 0 1 .108.224c.336.929 1.036 3.515-.665 5.493Z" fill="url(#b)" fill-opacity=".8"/><path d="M38.57 36.02a.709.709 0 0 0 .024.251.584.584 0 0 0 .108.185c.055.06.106.088.208.144.88.484 3.366 1.606 5.657.315 2.286-1.288 2.539-3.942 2.55-4.933a.711.711 0 0 0-.023-.25.602.602 0 0 0-.108-.186.716.716 0 0 0-.208-.144c-.88-.484-3.367-1.605-5.658-.314-2.285 1.288-2.538 3.942-2.55 4.932Z" fill="url(#c)" fill-opacity=".8"/><path d="M28.715 41.622a.71.71 0 0 0-.14.213.6.6 0 0 0-.03.214.697.697 0 0 0 .075.243c.392.916 1.644 3.28 4.256 3.638 2.613.359 4.485-1.58 5.12-2.354.073-.09.11-.135.14-.213a.6.6 0 0 0 .03-.214c-.006-.082-.03-.136-.075-.243-.392-.916-1.645-3.28-4.256-3.638-2.613-.359-4.486 1.58-5.12 2.354Z" fill="url(#d)" fill-opacity=".8"/><path d="M19.126 45.93c2.61-.358 3.864-2.721 4.256-3.638a.71.71 0 0 0 .075-.243.599.599 0 0 0-.03-.214.71.71 0 0 0-.14-.213c-.635-.775-2.508-2.713-5.12-2.354-2.612.358-3.865 2.722-4.257 3.638-.045.107-.068.16-.075.243a.6.6 0 0 0 .03.214c.03.078.067.123.14.213.635.775 2.508 2.713 5.12 2.354Z" fill="url(#e)" fill-opacity=".8"/><path d="M13.43 36.02a.711.711 0 0 1-.022.251.599.599 0 0 1-.108.185c-.056.06-.107.088-.209.144-.879.484-3.366 1.606-5.657.315-2.286-1.288-2.538-3.942-2.55-4.933a.71.71 0 0 1 .024-.25.6.6 0 0 1 .107-.186.716.716 0 0 1 .209-.144c.879-.484 3.366-1.605 5.657-.314 2.286 1.288 2.538 3.942 2.55 4.932Z" fill="url(#f)" fill-opacity=".8"/><path d="M5.43 24.526c1.705 1.983 4.445 1.753 5.434 1.592.114-.019.17-.028.242-.065a.598.598 0 0 0 .162-.135.71.71 0 0 0 .108-.224c.335-.928 1.036-3.514-.665-5.493-1.705-1.983-4.445-1.753-5.434-1.592a.718.718 0 0 0-.242.065.597.597 0 0 0-.162.135.711.711 0 0 0-.108.224c-.335.929-1.036 3.515.665 5.493Z" fill="url(#g)" fill-opacity=".8"/><path d="M14.255 16.211a.716.716 0 0 1-.204.138.597.597 0 0 1-.204.036.717.717 0 0 1-.238-.061c-.935-.34-3.435-1.478-3.896-4.033-.462-2.552 1.485-4.455 2.246-5.088a.716.716 0 0 1 .203-.138.597.597 0 0 1 .204-.036.719.719 0 0 1 .239.061c.935.34 3.435 1.478 3.896 4.033.461 2.552-1.486 4.455-2.246 5.088Z" fill="url(#h)" fill-opacity=".8"/><path d="M25.44 18.503c.18-.395.27-.591.392-.654a.365.365 0 0 1 .337 0c.122.063.212.26.392.654l1.709 3.738c.053.116.08.174.119.22.034.04.075.072.121.095a.799.799 0 0 0 .23.054l3.822.603c.403.064.604.096.697.202.081.092.12.22.104.345-.018.145-.164.298-.455.605l-2.765 2.908a.898.898 0 0 0-.157.19.442.442 0 0 0-.046.154.99.99 0 0 0 .023.254l.653 4.107c.068.433.103.65.038.779a.394.394 0 0 1-.272.213c-.133.027-.313-.076-.674-.28l-3.416-1.94a.821.821 0 0 0-.216-.103.363.363 0 0 0-.15 0 .821.821 0 0 0-.216.102l-3.417 1.94c-.36.205-.54.308-.674.281a.394.394 0 0 1-.272-.213c-.065-.13-.03-.346.039-.779l.652-4.107a.996.996 0 0 0 .024-.254.444.444 0 0 0-.047-.154.9.9 0 0 0-.157-.19l-2.765-2.908c-.291-.306-.437-.46-.454-.605a.444.444 0 0 1 .103-.345c.093-.106.295-.138.697-.202l3.822-.603a.799.799 0 0 0 .23-.054.394.394 0 0 0 .122-.096c.039-.045.065-.103.118-.22l1.71-3.737Z" fill="url(#i)" fill-opacity=".8"/><path d="M37.746 16.211a.69.69 0 0 0 .204.138.597.597 0 0 0 .204.036.717.717 0 0 0 .238-.061c.935-.34 3.435-1.478 3.897-4.033.46-2.552-1.486-4.455-2.247-5.088a.716.716 0 0 0-.203-.138.597.597 0 0 0-.204-.036.719.719 0 0 0-.239.061c-.935.34-3.434 1.478-3.896 4.033-.461 2.552 1.486 4.455 2.246 5.088Z" stroke="url(#j)" stroke-width="2" stroke-linecap="round" stroke-linejoin="round"/><path d="M46.571 24.526c-1.705 1.983-4.445 1.753-5.434 1.592-.114-.019-.17-.028-.242-.065a.598.598 0 0 1-.162-.135.71.71 0 0 1-.108-.224c-.335-.928-1.035-3.514.665-5.493 1.705-1.983 4.445-1.753 5.435-1.592.113.019.17.028.241.065a.596.596 0 0 1 .162.135.71.71 0 0 1 .108.224c.336.929 1.036 3.515-.665 5.493Z" stroke="url(#k)" stroke-width="2" stroke-linecap="round" stroke-linejoin="round"/><path d="M38.57 36.02a.709.709 0 0 0 .024.251.584.584 0 0 0 .108.185c.055.06.106.088.208.144.88.484 3.366 1.606 5.657.315 2.286-1.288 2.539-3.942 2.55-4.933a.711.711 0 0 0-.023-.25.602.602 0 0 0-.108-.186.716.716 0 0 0-.208-.144c-.88-.484-3.367-1.605-5.658-.314-2.285 1.288-2.538 3.942-2.55 4.932Z" stroke="url(#l)" stroke-width="2" stroke-linecap="round" stroke-linejoin="round"/><path d="M28.715 41.622a.71.71 0 0 0-.14.213.6.6 0 0 0-.03.214.697.697 0 0 0 .075.243c.392.916 1.644 3.28 4.256 3.638 2.613.359 4.485-1.58 5.12-2.354.073-.09.11-.135.14-.213a.6.6 0 0 0 .03-.214c-.006-.082-.03-.136-.075-.243-.392-.916-1.645-3.28-4.256-3.638-2.613-.359-4.486 1.58-5.12 2.354Z" stroke="url(#m)" stroke-width="2" stroke-linecap="round" stroke-linejoin="round"/><path d="M19.126 45.93c2.61-.358 3.864-2.721 4.256-3.638a.71.71 0 0 0 .075-.243.599.599 0 0 0-.03-.214.71.71 0 0 0-.14-.213c-.635-.775-2.508-2.713-5.12-2.354-2.612.358-3.865 2.722-4.257 3.638-.045.107-.068.16-.075.243a.6.6 0 0 0 .03.214c.03.078.067.123.14.213.635.775 2.508 2.713 5.12 2.354Z" stroke="url(#n)" stroke-width="2" stroke-linecap="round" stroke-linejoin="round"/><path d="M13.43 36.02a.711.711 0 0 1-.022.251.599.599 0 0 1-.108.185c-.056.06-.107.088-.209.144-.879.484-3.366 1.606-5.657.315-2.286-1.288-2.538-3.942-2.55-4.933a.71.71 0 0 1 .024-.25.6.6 0 0 1 .107-.186.716.716 0 0 1 .209-.144c.879-.484 3.366-1.605 5.657-.314 2.286 1.288 2.538 3.942 2.55 4.932Z" stroke="url(#o)" stroke-width="2" stroke-linecap="round" stroke-linejoin="round"/><path d="M5.43 24.526c1.705 1.983 4.445 1.753 5.434 1.592.114-.019.17-.028.242-.065a.598.598 0 0 0 .162-.135.71.71 0 0 0 .108-.224c.335-.928 1.036-3.514-.665-5.493-1.705-1.983-4.445-1.753-5.434-1.592a.718.718 0 0 0-.242.065.597.597 0 0 0-.162.135.711.711 0 0 0-.108.224c-.335.929-1.036 3.515.665 5.493Z" stroke="url(#p)" stroke-width="2" stroke-linecap="round" stroke-linejoin="round"/><path d="M14.255 16.211a.716.716 0 0 1-.204.138.597.597 0 0 1-.204.036.717.717 0 0 1-.238-.061c-.935-.34-3.435-1.478-3.896-4.033-.462-2.552 1.485-4.455 2.246-5.088a.716.716 0 0 1 .203-.138.597.597 0 0 1 .204-.036.719.719 0 0 1 .239.061c.935.34 3.435 1.478 3.896 4.033.461 2.552-1.486 4.455-2.246 5.088Z" stroke="url(#q)" stroke-width="2" stroke-linecap="round" stroke-linejoin="round"/><path d="M25.44 18.503c.18-.395.27-.591.392-.654a.365.365 0 0 1 .337 0c.122.063.212.26.392.654l1.709 3.738c.053.116.08.174.119.22.034.04.075.072.121.095a.799.799 0 0 0 .23.054l3.822.603c.403.064.604.096.697.202.081.092.12.22.104.345-.018.145-.164.298-.455.605l-2.765 2.908a.898.898 0 0 0-.157.19.442.442 0 0 0-.046.154.99.99 0 0 0 .023.254l.653 4.107c.068.433.103.65.038.779a.394.394 0 0 1-.272.213c-.133.027-.313-.076-.674-.28l-3.416-1.94a.821.821 0 0 0-.216-.103.363.363 0 0 0-.15 0 .821.821 0 0 0-.216.102l-3.417 1.94c-.36.205-.54.308-.674.281a.394.394 0 0 1-.272-.213c-.065-.13-.03-.346.039-.779l.652-4.107a.996.996 0 0 0 .024-.254.444.444 0 0 0-.047-.154.9.9 0 0 0-.157-.19l-2.765-2.908c-.291-.306-.437-.46-.454-.605a.444.444 0 0 1 .103-.345c.093-.106.295-.138.697-.202l3.822-.603a.799.799 0 0 0 .23-.054.394.394 0 0 0 .122-.096c.039-.045.065-.103.118-.22l1.71-3.737Z" stroke="url(#r)" stroke-width="2" stroke-linecap="round" stroke-linejoin="round"/><defs><linearGradient id="a" x1="5.276" y1="6.974" x2="55.049" y2="25.393" gradientUnits="userSpaceOnUse"><stop stop-color="#393939" stop-opacity=".27"/><stop offset="1" stop-color="#fff" stop-opacity=".38"/></linearGradient><linearGradient id="b" x1="5.276" y1="6.974" x2="55.049" y2="25.393" gradientUnits="userSpaceOnUse"><stop stop-color="#393939" stop-opacity=".27"/><stop offset="1" stop-color="#fff" stop-opacity=".38"/></linearGradient><linearGradient id="c" x1="5.276" y1="6.974" x2="55.049" y2="25.393" gradientUnits="userSpaceOnUse"><stop stop-color="#393939" stop-opacity=".27"/><stop offset="1" stop-color="#fff" stop-opacity=".38"/></linearGradient><linearGradient id="d" x1="5.276" y1="6.974" x2="55.049" y2="25.393" gradientUnits="userSpaceOnUse"><stop stop-color="#393939" stop-opacity=".27"/><stop offset="1" stop-color="#fff" stop-opacity=".38"/></linearGradient><linearGradient id="e" x1="5.276" y1="6.974" x2="55.049" y2="25.393" gradientUnits="userSpaceOnUse"><stop stop-color="#393939" stop-opacity=".27"/><stop offset="1" stop-color="#fff" stop-opacity=".38"/></linearGradient><linearGradient id="f" x1="5.276" y1="6.974" x2="55.049" y2="25.393" gradientUnits="userSpaceOnUse"><stop stop-color="#393939" stop-opacity=".27"/><stop offset="1" stop-color="#fff" stop-opacity=".38"/></linearGradient><linearGradient id="g" x1="5.276" y1="6.974" x2="55.049" y2="25.393" gradientUnits="userSpaceOnUse"><stop stop-color="#393939" stop-opacity=".27"/><stop offset="1" stop-color="#fff" stop-opacity=".38"/></linearGradient><linearGradient id="h" x1="5.276" y1="6.974" x2="55.049" y2="25.393" gradientUnits="userSpaceOnUse"><stop stop-color="#393939" stop-opacity=".27"/><stop offset="1" stop-color="#fff" stop-opacity=".38"/></linearGradient><linearGradient id="i" x1="5.276" y1="6.974" x2="55.049" y2="25.393" gradientUnits="userSpaceOnUse"><stop stop-color="#393939" stop-opacity=".27"/><stop offset="1" stop-color="#fff" stop-opacity=".38"/></linearGradient><linearGradient id="j" x1="14.501" y1="8" x2="50.501" y2="53.5" gradientUnits="userSpaceOnUse"><stop stop-color="#D9D9D9"/><stop offset="1" stop-color="#4D4D51"/></linearGradient><linearGradient id="k" x1="14.501" y1="8" x2="50.501" y2="53.5" gradientUnits="userSpaceOnUse"><stop stop-color="#D9D9D9"/><stop offset="1" stop-color="#4D4D51"/></linearGradient><linearGradient id="l" x1="14.501" y1="8" x2="50.501" y2="53.5" gradientUnits="userSpaceOnUse"><stop stop-color="#D9D9D9"/><stop offset="1" stop-color="#4D4D51"/></linearGradient><linearGradient id="m" x1="14.501" y1="8" x2="50.501" y2="53.5" gradientUnits="userSpaceOnUse"><stop stop-color="#D9D9D9"/><stop offset="1" stop-color="#4D4D51"/></linearGradient><linearGradient id="n" x1="14.501" y1="8" x2="50.501" y2="53.5" gradientUnits="userSpaceOnUse"><stop stop-color="#D9D9D9"/><stop offset="1" stop-color="#4D4D51"/></linearGradient><linearGradient id="o" x1="14.501" y1="8" x2="50.501" y2="53.5" gradientUnits="userSpaceOnUse"><stop stop-color="#D9D9D9"/><stop offset="1" stop-color="#4D4D51"/></linearGradient><linearGradient id="p" x1="14.501" y1="8" x2="50.501" y2="53.5" gradientUnits="userSpaceOnUse"><stop stop-color="#D9D9D9"/><stop offset="1" stop-color="#4D4D51"/></linearGradient><linearGradient id="q" x1="14.501" y1="8" x2="50.501" y2="53.5" gradientUnits="userSpaceOnUse"><stop stop-color="#D9D9D9"/><stop offset="1" stop-color="#4D4D51"/></linearGradient><linearGradient id="r" x1="14.501" y1="8" x2="50.501" y2="53.5" gradientUnits="userSpaceOnUse"><stop stop-color="#D9D9D9"/><stop offset="1" stop-color="#4D4D51"/></linearGradient></defs></svg>