<svg width="52" height="53" fill="none" xmlns="http://www.w3.org/2000/svg"><g opacity=".4" fill-opacity=".8"><path d="M27.084 34.057H16.251c-3.024 0-4.536 0-5.766.374a8.667 8.667 0 0 0-5.778 5.777c-.373 1.23-.373 2.742-.373 5.766h34.667c0-3.024 0-4.535-.373-5.766a8.667 8.667 0 0 0-5.778-5.777c-1.23-.373-2.742-.373-5.766-.373Z" fill="url(#a)"/><path d="M21.667 26.474c5.385 0 9.75-4.365 9.75-9.75s-4.365-9.75-9.75-9.75-9.75 4.365-9.75 9.75 4.365 9.75 9.75 9.75Z" fill="url(#b)"/></g><path d="M39 45.974c0-3.024 0-4.535-.373-5.766a8.667 8.667 0 0 0-5.777-5.777c-1.23-.374-2.742-.374-5.766-.374H16.251c-3.024 0-4.536 0-5.766.374a8.667 8.667 0 0 0-5.778 5.777c-.373 1.23-.373 2.742-.373 5.766m43.333 0c0-3.024 0-4.535-.373-5.766-.661-2.18-2.008-3.987-3.96-5.067m-6.5-7.583c2.568-1.241 4.333-5.69 4.333-8.667 0-2.978-1.765-7.426-4.333-8.667m-6.5 6.5c0 5.385-3.282 9.75-8.667 9.75s-8.666-4.365-8.666-9.75 3.281-9.75 8.666-9.75 8.667 4.365 8.667 9.75Z" stroke="url(#c)" stroke-width="2" stroke-linecap="round" stroke-linejoin="round"/><defs><linearGradient id="a" x1="5.088" y1="6.974" x2="46.711" y2="19.297" gradientUnits="userSpaceOnUse"><stop stop-color="#393939" stop-opacity=".27"/><stop offset="1" stop-color="#fff" stop-opacity=".38"/></linearGradient><linearGradient id="b" x1="5.088" y1="6.974" x2="46.711" y2="19.297" gradientUnits="userSpaceOnUse"><stop stop-color="#393939" stop-opacity=".27"/><stop offset="1" stop-color="#fff" stop-opacity=".38"/></linearGradient><linearGradient id="c" x1="4.001" y1="7" x2="50.501" y2="53.5" gradientUnits="userSpaceOnUse"><stop stop-color="#D9D9D9"/><stop offset="1" stop-color="#4D4D51"/></linearGradient></defs></svg>