
<svg width="24" height="24" fill="none" xmlns="http://www.w3.org/2000/svg"><path d="M13.847 2.846c0-.482-.345-.902-.825-.95a10.152 10.152 0 0 0-9.944 5.252.941.941 0 0 0 .173 1.107l1.835 1.877a.802.802 0 0 0 1.376-.561c0-.443.359-.802.802-.802h1.89a1 1 0 0 0 1-1V6.538a1 1 0 0 1 1-1h1.693a1 1 0 0 0 1-1V2.846ZM9.126 14.558a1 1 0 0 1 .105.447v.687c0 .51.413.923.923.923s.923.413.923.923v3.65c0 .517.407.942.923.965a10.12 10.12 0 0 0 4.063-.845.944.944 0 0 0 .553-.874v-2.82a1 1 0 0 0-1-1h-.77a1 1 0 0 1-1-1v-1.691a1 1 0 0 0-1-1h-2.92a1 1 0 0 0-.894 1.447l.094.188Z" opacity=".4" fill="#F6F7F7"/><path d="M12 22C6.477 22 2 17.523 2 12c0-1.489.325-2.902.91-4.172M12 22a9.957 9.957 0 0 0 4.546-1.09M12 22l-.04-.002a.91.91 0 0 1-.87-.908v-3.636a.91.91 0 0 0-.908-.909.91.91 0 0 1-.91-.909v-.694a.91.91 0 0 0-.095-.407l-.813-1.626m5.454-10.744a10.002 10.002 0 0 0-10.91 5.663m10.91-5.663C18.473 3.02 22 7.098 22 12a10 10 0 0 1-5.454 8.91M13.818 2.165v2.562a.91.91 0 0 1-.909.91h-1.818a.91.91 0 0 0-.91.908V7.91a.91.91 0 0 1-.908.91H7.455a.91.91 0 0 0-.91.908v1.819m1.819 1.363h4.545a.91.91 0 0 1 .91.91v1.817c0 .502.406.91.908.91h.91a.91.91 0 0 1 .909.909v3.455m-8.182-8-1.819-1.364m0 0L2.91 7.828" stroke="#F6F7F7" stroke-width="2" stroke-linecap="round" stroke-linejoin="round"/></svg>