<svg width="136" height="136" fill="none" xmlns="http://www.w3.org/2000/svg"><g opacity=".4" fill-opacity=".8"><path d="M26.831 87.716a23.461 23.461 0 0 0-15.623 15.658C10.2 106.708 10.2 110.806 10.2 119h115.6c0-8.194 0-12.292-1.009-15.626-2.272-7.506-7.89-11.738-15.38-14.015-17.491-3.051-68.012-6.072-82.579-1.643Z" fill="url(#a)"/><path d="M59.107 73.913c-15.757 0-24.454-12.74-24.454-28.456S43.35 17 59.107 17c8.147 0 14.407 3.407 18.553 8.87 6.616 0 12.52 1.127 17.016 4.435 5.772 4.245 9.227 11.45 8.892 17.739 0 10.883-3.366 19.952-11.65 23.423-5.218 2.186-12.377 1.231-21.912 0-3.13 1.572-6.772 2.447-10.9 2.447Z" fill="url(#b)"/></g><path d="M91.383 87.716c-1.71-.52-3.622-.773-6.188-.895-15.491-.742-32.016-1.065-47.708-.27m53.896 1.165a23.462 23.462 0 0 1 15.623 15.658c1.009 3.334 1.009 7.432 1.009 15.626M91.383 87.716c8.176 0 12.264 0 15.591 1.011 7.49 2.277 15.544 7.14 17.816 14.647 1.009 3.334 1.009 7.432 1.009 15.626m-115.6 0c0-8.194 0-12.292 1.01-15.626A23.462 23.462 0 0 1 26.83 87.716c1.454-.442 3.052-.69 5.073-.83 1.847-.129 3.709-.24 5.583-.335m34.23 24.319h15.59m-9.646-85a25.56 25.56 0 0 1 4.446-.377c14.324 0 22.231 10.92 22.231 24.391 0 13.471-7.907 24.391-22.23 24.391-4.59 0-8.453-1.062-11.676-3.029M36.18 40.974c4.214 1.018 16.303.088 30.95-11.769 2.139 2.906 8.13 9.067 14.978 10.462m2.457 3.051c.727-.581 2.528-2.18 3.923-3.923 1.744 1.598 6.974 4.795 13.949 4.795m-43.33 42.504L40.102 97.64l-2.615-11.09m21.623-.457L77.154 97.64l4.953-10.962m1.454-41.222c0 15.716-8.697 28.456-24.454 28.456-15.756 0-24.454-12.74-24.454-28.456S43.351 17 59.107 17c15.757 0 24.454 12.74 24.454 28.457Z" stroke="url(#c)" stroke-width="3" stroke-linecap="round" stroke-linejoin="round"/><defs><linearGradient id="a" x1="12.712" y1="17" x2="144.849" y2="66.878" gradientUnits="userSpaceOnUse"><stop stop-color="#393939" stop-opacity=".27"/><stop offset="1" stop-color="#fff" stop-opacity=".38"/></linearGradient><linearGradient id="b" x1="12.712" y1="17" x2="144.849" y2="66.878" gradientUnits="userSpaceOnUse"><stop stop-color="#393939" stop-opacity=".27"/><stop offset="1" stop-color="#fff" stop-opacity=".38"/></linearGradient><linearGradient id="c" x1="9.31" y1="17.068" x2="130.902" y2="141.092" gradientUnits="userSpaceOnUse"><stop stop-color="#D9D9D9"/><stop offset="1" stop-color="#4D4D51"/></linearGradient></defs></svg>