
<svg width="44" height="44" fill="none" xmlns="http://www.w3.org/2000/svg"><path fill-rule="evenodd" clip-rule="evenodd" d="M19.911 5.05c-1.378.092-3.671.34-4.016.432-.148.04-.57.138-.938.22a9.06 9.06 0 0 0-.848.219c-.098.04-.399.141-.669.227-1.58.499-3.552 1.655-4.587 2.69-.698.698-1.543 1.95-2.07 3.069-.368.781-.456.995-.62 1.517-.086.27-.186.57-.224.669-.066.174-.288 1.072-.397 1.606-.254 1.248-.503 3.883-.54 5.712-.033 1.706.262 5.671.495 6.648.041.172.146.634.232 1.026.087.393.19.753.23.8.04.046.073.152.073.235 0 .083.166.566.37 1.073.323.807.46 1.091.916 1.903.306.545 1.168 1.676 1.588 2.085.427.415 1.495 1.216 1.996 1.498.801.45 1.096.592 1.903.916.507.203.99.37 1.073.37a.42.42 0 0 1 .236.072c.047.04.406.144.799.23.393.087.854.194 1.026.237.802.202 4.917.519 6.427.495 1.768-.029 4.707-.285 5.668-.495 1.432-.312 1.795-.403 1.87-.467a.424.424 0 0 1 .236-.072c.2 0 1.887-.68 2.399-.966.222-.125.485-.27.583-.323.492-.264 1.4-.944 1.907-1.427.485-.463 1.341-1.565 1.671-2.153.456-.812.593-1.096.917-1.903.203-.507.37-.99.37-1.073a.42.42 0 0 1 .072-.236c.04-.046.143-.406.23-.799.087-.392.193-.854.236-1.026.217-.862.475-4.166.475-6.068 0-1.903-.258-5.207-.475-6.069-.043-.171-.15-.633-.236-1.026-.087-.392-.19-.752-.23-.799a.424.424 0 0 1-.073-.236c0-.2-.679-1.886-.966-2.398-.124-.222-.27-.484-.322-.583-.265-.491-.945-1.4-1.428-1.906-.463-.486-1.566-1.342-2.153-1.671-.813-.456-1.096-.593-1.904-.917-.507-.203-.978-.37-1.047-.37a.742.742 0 0 1-.281-.08c-.14-.075-.885-.267-1.583-.409-1.973-.402-6.063-.635-8.39-.478Zm2.983 7.312c1.858.311 3.436 1.835 3.889 3.755.073.31.133.706.134.88 0 .175.05.366.108.425.077.076.659.107 2.052.107h1.944l-.04.38-.134 1.226c-.051.466-.135 1.27-.187 1.785-.102 1.036-.182 1.8-.395 3.793-.079.736-.18 1.703-.224 2.149a13.512 13.512 0 0 1-.177 1.239c-.336 1.5-1.605 2.755-3.106 3.071-.639.135-8.711.137-9.437.003-.744-.138-1.473-.535-2.073-1.13-.817-.812-1.09-1.529-1.27-3.324-.045-.467-.148-1.45-.226-2.187-.236-2.205-.297-2.79-.444-4.274-.078-.78-.157-1.444-.176-1.475-.02-.03-.045-.316-.058-.634l-.024-.578 2.002-.044 2.003-.045.025-.357c.093-1.35.601-2.505 1.492-3.398 1.187-1.189 2.64-1.649 4.322-1.367Zm-1.688 2.103c-1.02.347-1.675 1.076-1.933 2.152-.082.34-.124.685-.093.766.05.13.342.146 2.82.146 1.864 0 2.785-.031 2.824-.095.107-.173-.148-1.211-.41-1.67a2.963 2.963 0 0 0-1.403-1.21c-.363-.142-1.488-.197-1.805-.089Z" fill="#fff" fill-opacity=".9"/></svg>