
<svg width="36" height="36" fill="none" xmlns="http://www.w3.org/2000/svg"><g opacity=".4" fill-opacity=".8"><path d="M21.4 2.58a.85.85 0 0 0-.69-.602A16.266 16.266 0 0 0 18.3 1.8c-6.32 0-11.792 3.633-14.452 8.928a.869.869 0 0 0 .12.95c1.615 1.91 2.744 3.156 4.393 4.622.504.448 1.304.18 1.371-.491a7.08 7.08 0 0 0 .017-1.247c-.06-.824.628-1.543 1.449-1.459 1.225.126 2.234.072 3.557-.15.38-.063.701-.32.835-.68.367-.99.482-1.75.403-2.49-.098-.925.608-1.847 1.535-1.781.998.07 1.915.008 3.07-.192.4-.068.731-.352.85-.74.492-1.597.464-2.74-.049-4.49Z" fill="url(#a)"/><path d="M13.736 23.056a3.915 3.915 0 0 0-.017 1.629.984.984 0 0 0 .863.785c.2.022.387.034.569.037.812.015 1.474.71 1.35 1.515-.332 2.134-.189 3.815.18 6.186.085.54.54.943 1.085.968l.535.024c2.48 0 4.832-.56 6.933-1.56a.877.877 0 0 0 .484-.666c.342-2.271.612-3.742.096-5.973a1.051 1.051 0 0 0-.802-.793c-.797-.17-1.446-.206-2.153-.135-.796.08-1.508-.55-1.425-1.347.12-1.155.153-2.146-.054-3.48a1.093 1.093 0 0 0-.913-.905c-2.69-.432-4.49-.405-7.156-.009-.492.073-.838.542-.703 1.02.16.57.399 1.036.845 1.577.259.314.364.728.283 1.127Z" fill="url(#b)"/></g><path d="M18 34.2C9.055 34.2 1.8 26.947 1.8 18c0-2.412.528-4.701 1.474-6.758M18 34.2c2.651 0 5.154-.637 7.363-1.767M18.001 34.2l-.536-.024a1.15 1.15 0 0 1-1.086-.968c-.37-2.37-.514-4.052-.182-6.186.125-.804-.538-1.5-1.352-1.515a6.233 6.233 0 0 1-.57-.037.985.985 0 0 1-.864-.785 3.909 3.909 0 0 1 .017-1.629 1.35 1.35 0 0 0-.284-1.127c-.655-.793-.862-1.422-1.034-2.456m8.836-17.406a16.293 16.293 0 0 0-2.945-.267c-6.535 0-12.166 3.869-14.727 9.442m17.672-9.175C28.486 3.452 34.201 10.059 34.201 18c0 6.295-3.591 11.752-8.837 14.433M20.946 2.067c.663 2.05.748 3.254.209 5.003-.12.388-.452.672-.852.74-1.158.2-2.077.262-3.076.192-.929-.066-1.636.856-1.538 1.781.078.74-.036 1.5-.404 2.49a1.078 1.078 0 0 1-.837.68c-1.325.222-2.336.276-3.564.15-.822-.084-1.511.635-1.45 1.46.065.898-.035 1.65-.27 2.7m2.946 2.21c3.186-.526 5.077-.61 8.062-.132.468.075.841.436.914.904.208 1.335.175 2.326.054 3.48-.083.799.63 1.427 1.428 1.348a6.693 6.693 0 0 1 2.157.135c.399.085.711.396.803.793.552 2.378.208 3.892-.164 6.432M12.11 19.473c-.802-1.342-1.55-1.685-2.946-2.21m0 0c-2.46-2.051-3.714-3.435-5.89-6.022" stroke="url(#c)" stroke-width="1.8" stroke-linecap="round" stroke-linejoin="round"/><defs><linearGradient id="a" x1="4.091" y1="1.8" x2="31.982" y2="8.251" gradientUnits="userSpaceOnUse"><stop stop-color="#393939" stop-opacity=".27"/><stop offset="1" stop-color="#fff" stop-opacity=".38"/></linearGradient><linearGradient id="b" x1="4.091" y1="1.8" x2="31.982" y2="8.251" gradientUnits="userSpaceOnUse"><stop stop-color="#393939" stop-opacity=".27"/><stop offset="1" stop-color="#fff" stop-opacity=".38"/></linearGradient><linearGradient id="c" x1="1.552" y1="1.821" x2="39.969" y2="36.397" gradientUnits="userSpaceOnUse"><stop stop-color="#D9D9D9"/><stop offset="1" stop-color="#4D4D51"/></linearGradient></defs></svg>