<svg width="115" height="45" fill="none" xmlns="http://www.w3.org/2000/svg"><g clip-path="url(#a)"><path d="M54.584 6.61v11.372h7.049c1.68 0 3.067-.56 4.164-1.683 1.13-1.12 1.692-2.457 1.692-4.004 0-1.547-.563-2.836-1.692-3.96-1.1-1.152-2.488-1.728-4.164-1.728h-7.049v.004Zm0 15.376v13.192h-4.209V2.607H61.54c2.837 0 5.242.942 7.228 2.82 2.019 1.877 3.023 4.169 3.023 6.868 0 2.699-1.004 5.067-3.023 6.913-1.95 1.852-4.362 2.775-7.228 2.775h-6.956v.003Zm21.46 6.366c0 1.094.463 2.001 1.397 2.73.931.726 2.022 1.092 3.272 1.092 1.772 0 3.346-.653 4.734-1.954 1.388-1.305 2.082-2.836 2.082-4.593-1.311-1.034-3.144-1.547-5.492-1.547-1.708 0-3.134.41-4.276 1.229-1.142.818-1.717 1.83-1.717 3.043Zm5.446-16.194c3.112 0 5.569.824 7.37 2.48 1.8 1.654 2.695 3.917 2.695 6.798v13.74H87.53v-3.094h-.182c-1.74 2.546-4.056 3.819-6.954 3.819-2.472 0-4.541-.726-6.201-2.18-1.663-1.458-2.495-3.275-2.495-5.462 0-2.304.873-4.137 2.63-5.5 1.755-1.365 4.096-2.046 7.023-2.046 2.5 0 4.56.455 6.176 1.365v-.954c0-1.455-.58-2.69-1.737-3.705-1.161-1.018-2.514-1.525-4.072-1.525-2.35 0-4.208.984-5.58 2.957l-3.71-2.32c2.046-2.912 5.066-4.367 9.063-4.367m33.176.723L100.617 45h-4.346l5.216-11.235-9.243-20.878h4.577l6.681 16.012h.09l6.499-16.012h4.576Z" fill="#fff"/><path d="M37.573 19.14c0-1.317-.112-2.59-.323-3.806H19.496v7.209h10.168c-.436 2.349-1.756 4.348-3.759 5.688v4.681h6.07c3.554-3.259 5.601-8.074 5.601-13.768" fill="#4285F4"/><path d="M19.494 37.431c5.082 0 9.358-1.658 12.48-4.519l-6.071-4.682c-1.689 1.13-3.863 1.792-6.41 1.792-4.909 0-9.076-3.29-10.57-7.724h-6.25v4.822a18.844 18.844 0 0 0 16.824 10.315" fill="#34A853"/><path d="M8.926 22.295a11.122 11.122 0 0 1 0-7.161v-4.822H2.673a18.504 18.504 0 0 0-2.005 8.402c0 3.024.723 5.879 2.005 8.403l6.253-4.822Z" fill="#FABB05"/><path d="M19.494 7.406c2.773 0 5.26.949 7.221 2.807l5.374-5.34C28.826 1.856 24.573 0 19.494 0a18.84 18.84 0 0 0-16.82 10.312l6.252 4.822c1.49-4.434 5.658-7.725 10.57-7.725" fill="#E94235"/></g><defs><clipPath id="a"><path fill="#fff" transform="translate(.668)" d="M0 0h114v45H0z"/></clipPath></defs></svg>