<svg width="176" height="49" fill="none" xmlns="http://www.w3.org/2000/svg"><path d="m155.818 7.276 7.863 13.026-16.533 13.026 8.67-26.052Z" fill="#098041"/><path d="m150.313 7.276 7.856 13.026-16.532 13.026 8.676-26.052Z" fill="#E97626"/><path fill-rule="evenodd" clip-rule="evenodd" d="M22.827 8.599c-.2.704-.654 2.216-1.008 3.358-1.695 5.47-6.163 20.26-6.163 20.405 0 .12.732.163 2.725.163 2.465 0 2.732-.023 2.8-.242l1.175-3.844c3.289-10.761 6.401-21.012 6.402-21.087 0-.019-1.252-.035-2.783-.035h-2.783L22.827 8.6Zm10.38 1.87c-.93 3.082-1.774 5.857-3.99 13.123-.604 1.98-1.43 4.692-1.834 6.025-.404 1.333-.781 2.533-.838 2.666-.097.225.092.242 2.707.242h2.81l.872-2.874c2.497-8.235 3.221-10.56 3.29-10.556.042.002 1.996 3 4.343 6.66 2.346 3.662 4.302 6.678 4.346 6.703.045.026 3.3-2.626 7.233-5.892 3.933-3.265 7.17-5.92 7.195-5.898.023.022-.022.221-.102.443-.246.689-3.196 10.488-3.3 10.964l-.099.45h5.512l.172-.588c.21-.72 3.917-12.906 6.244-20.534l1.182-3.878c.057-.191-.219-.039-.895.494-.538.425-3.652 2.822-6.92 5.328-3.268 2.507-7.99 6.131-10.495 8.056-2.504 1.924-4.597 3.473-4.652 3.443-.055-.031-2.702-3.986-5.884-8.788-3.181-4.802-5.82-8.733-5.865-8.736-.045-.003-.51 1.413-1.032 3.146Zm40.141-.762c-.395 1.314-.716 2.435-.714 2.493.002.057 6.181.104 13.732.104 10.919 0 13.714.035 13.657.173-.04.095-.403 1.248-.808 2.562l-.737 2.39H71.107l-.146.31c-.128.274-1.486 4.667-3.75 12.132-.378 1.244-.724 2.35-.77 2.458-.07.165.365.196 2.719.196h2.802l.579-1.904c1.257-4.136 1.524-5.01 1.998-6.544l.493-1.593 12.857-.07 12.858-.069.631-.307c.973-.472 1.64-1.28 2.008-2.43 1.368-4.273 3.075-10.161 3.075-10.605 0-.65-.446-1.222-1.164-1.495-.416-.158-3.155-.19-15.867-.19H74.066l-.718 2.389Zm39.588-2.131c-.841.348-1.56.928-1.897 1.528-.156.278-.674 1.781-1.152 3.341-2.599 8.487-2.571 8.365-2.129 9.143.491.863-.117.826 13.854.826 7.002 0 12.73.044 12.73.098 0 .099-.687 2.367-1.238 4.092l-.299.935h-13.782c-7.58 0-13.781.03-13.781.067 0 .037-.309 1.088-.686 2.335-.377 1.246-.686 2.34-.686 2.428 0 .122 3.796.152 15.579.124 14.857-.035 15.603-.049 16.111-.295.67-.324 1.486-1.015 1.761-1.492.115-.201.939-2.757 1.83-5.68 1.828-5.993 1.879-6.354 1.011-7.059-.331-.27-.698-.403-1.276-.465-.447-.048-6.245-.068-12.886-.046-6.641.023-12.074.017-12.074-.014 0-.03.353-1.2.784-2.597l.785-2.541h27.518l.301-.935c.166-.514.485-1.557.71-2.317.225-.76.443-1.461.484-1.558.06-.142-2.948-.176-15.444-.174-14.69.003-15.552.017-16.128.256ZM17.937 38.731c-.71 1.272-1.313 2.36-1.341 2.416-.028.058.148.104.391.104.408 0 .496-.102 1.144-1.321l.7-1.322.176.802c.096.441.257 1.08.358 1.421l.184.62 1.05-1.243c1.285-1.518 1.503-1.744 1.401-1.45-.04.114-.113.722-.164 1.35l-.092 1.143h.874l.099-1.766c.054-.971.1-2.07.1-2.441v-.675l-1.405 1.74-1.405 1.742-.335-1.667c-.185-.917-.36-1.69-.39-1.716-.03-.028-.635.99-1.345 2.263Zm8.264.07c-.694 1.31-1.26 2.419-1.257 2.466.004.046.181.054.395.017.314-.055.53-.322 1.114-1.381l.726-1.313.282 1.4c.155.77.332 1.4.393 1.4.06 0 .63-.633 1.267-1.407l1.157-1.407-.097 1.337-.097 1.338h.921l.02-1.35c.012-.743.063-1.85.114-2.459.063-.75.043-1.063-.061-.97-.086.077-.739.87-1.452 1.762l-1.297 1.623-.345-1.727c-.19-.95-.384-1.723-.432-1.718-.048.005-.656 1.08-1.35 2.39Zm25.508-.041c-1.058 1.3-1.925 2.413-1.925 2.473 0 .06.201.082.447.05.308-.042.577-.23.86-.6.408-.537.416-.54 1.437-.54h1.026l.098.554c.088.503.139.554.552.554.25 0 .456-.07.456-.157 0-.203-.931-4.609-.985-4.66-.022-.021-.906 1.025-1.965 2.326Zm26.218-.022c-1.065 1.31-1.938 2.412-1.938 2.448 0 .036.197.065.437.065.337 0 .532-.126.858-.554.422-.553.424-.554 1.449-.554h1.026l.098.554c.088.503.14.554.552.554.25 0 .456-.033.456-.073 0-.096-.71-3.572-.873-4.279l-.126-.543-1.939 2.382Zm10.822.025c-.733 1.285-1.333 2.37-1.333 2.412 0 .042.193.076.43.076.395 0 .482-.106 1.087-1.32.362-.725.683-1.297.712-1.27.029.026.182.623.341 1.325.159.703.322 1.31.365 1.348.041.037.54-.48 1.109-1.15.568-.67 1.097-1.28 1.176-1.357.09-.086.103.342.035 1.143l-.107 1.281h.907l.111-2.363c.062-1.3.088-2.385.058-2.41-.03-.026-.67.725-1.422 1.67l-1.369 1.716-.345-1.683c-.19-.926-.362-1.7-.383-1.72-.022-.02-.64 1.016-1.372 2.302Zm13.614-.178c-.368 1.2-.702 2.29-.741 2.424-.057.19.023.242.368.242.433 0 .448-.026.882-1.541.338-1.182.479-1.496.605-1.346l1.362 1.623c.658.786 1.248 1.376 1.311 1.312.063-.065.394-1.052.735-2.195.342-1.142.667-2.186.724-2.32.084-.197.019-.242-.35-.242-.427 0-.469.051-.715.866-.144.476-.363 1.193-.488 1.593l-.227.728-.484-.613c-1.39-1.757-2.168-2.7-2.236-2.705-.042-.004-.378.974-.746 2.174Zm18.315-1.912c-.938.387-1.416 1.408-.924 1.974.104.12.481.383.838.583.755.423.826.765.246 1.18-.53.379-.909.363-1.207-.051-.212-.294-.293-.319-.613-.186-.859.356-.177 1.217.964 1.216.949 0 1.651-.394 2.013-1.13.375-.76.199-1.189-.687-1.675-.817-.45-.962-.711-.597-1.078.315-.316 1.109-.363 1.231-.072.067.158.16.168.453.047.543-.225.467-.638-.161-.877-.672-.255-.784-.25-1.556.069Zm28.03-.075c-1.544.453-2.751 1.958-2.593 3.232.064.52.19.741.626 1.105.48.4.649.455 1.391.455 1.152 0 1.837-.276 1.944-.782.046-.217.067-.411.046-.43-.021-.02-.272.072-.558.204-.699.322-1.697.317-2.095-.01-.523-.43-.559-.983-.118-1.802.653-1.214 2.238-1.734 3.196-1.048.428.306.39.327.625-.356.178-.518-1.398-.881-2.464-.568Zm-134.337.671c-.636 2.03-1.152 3.766-1.152 3.868 0 .063.195.114.434.114.432 0 .439-.014 1.083-2.174.356-1.195.682-2.255.724-2.354.053-.125-.07-.181-.392-.181-.436 0-.486.052-.697.727Zm20.703-.551c-.04.096-.37 1.14-.73 2.32l-.658 2.144 1.441.04c.793.022 1.458.022 1.48 0 .02-.022.084-.18.142-.352.102-.301.072-.311-.895-.311-.55 0-1-.035-1-.078 0-.042.076-.354.17-.692l.17-.615h1.03c.94 0 1.04-.028 1.123-.312.05-.172.093-.358.094-.416.001-.057-.45-.103-1.004-.103-.858 0-.993-.033-.914-.221.051-.121.135-.37.185-.554.087-.312.16-.334 1.142-.334.578 0 1.05-.057 1.05-.127s.042-.225.093-.346c.08-.19-.1-.219-1.376-.219-1.045 0-1.49.05-1.543.175Zm5.654-.022c-.09.237-1.326 4.301-1.358 4.467-.012.066.595.11 1.349.097 1.685-.028 2.474-.325 3.102-1.165.788-1.054.976-1.98.553-2.725-.33-.579-.72-.718-2.233-.797-1.056-.054-1.355-.029-1.413.123Zm7.155.02c-.271.739-1.298 4.228-1.298 4.408 0 .168.1.21.383.16.21-.036.413-.11.45-.164.036-.053.339-.996.673-2.095.333-1.1.653-2.107.71-2.24.083-.2.016-.243-.377-.243-.263 0-.506.078-.541.173Zm9.519-.047c0 .07-.042.226-.093.346-.076.181.033.22.62.22.608 0 .7.035.63.242-.157.47-1.157 3.694-1.157 3.734 0 .022.2.04.445.04.495 0 .486.016 1.078-2.008.622-2.122.549-2.009 1.291-2.009.626 0 .843-.145.843-.565 0-.07-.82-.127-1.829-.127-1.008 0-1.828.057-1.828.127Zm6.034.115c-.37 1.115-1.311 4.26-1.311 4.382 0 .215 2.775.121 2.929-.099.287-.41.115-.508-.889-.508-.812 0-.99-.039-.922-.2.046-.109.154-.436.24-.727l.156-.528h1.033c1.014 0 1.034-.007 1.082-.38l.048-.381h-1.985l.197-.52.197-.52.972-.041c.93-.04 1.2-.163 1.206-.547.001-.126-.386-.173-1.435-.173-1.237 0-1.448.034-1.518.242Zm9.018 2.078c-.385 1.276-.69 2.33-.677 2.341.012.012.194.043.402.07.354.044.403-.026.704-.991l.324-1.04.842-.069c.9-.074 1.351-.335 1.727-.996.582-1.023-.02-1.635-1.606-1.635h-1.016l-.7 2.32Zm10.73-2.157c.04.1.258.69.483 1.308l.41 1.125-.312 1.02c-.17.56-.31 1.056-.31 1.101 0 .19.91-.057.976-.265.04-.125.19-.602.332-1.059.22-.707.447-1.016 1.526-2.077 1.226-1.207 1.254-1.248.854-1.295-.344-.04-.579.113-1.406.914l-.994.963-.303-.915c-.29-.872-.328-.916-.818-.959-.376-.032-.493.005-.439.139Zm14.075.08c-.264.795-1.31 4.276-1.31 4.362 0 .058.643.104 1.43.104 1.164 0 1.448-.04 1.524-.219.178-.423.084-.473-.894-.473-.72 0-.968-.047-.921-.173.035-.096.134-.423.219-.728l.155-.554.995.047c.925.043 1.005.024 1.13-.277.074-.178.104-.37.067-.428-.037-.057-.505-.103-1.04-.103h-.974l.197-.52.197-.52.972-.041c.93-.04 1.2-.163 1.206-.547.001-.126-.386-.173-1.435-.173-1.237 0-1.448.034-1.518.242Zm12.668.103c-.068.327-.035.346.595.346.774 0 .778-.25-.033 2.355-.273.876-.467 1.634-.433 1.684.034.05.243.048.464-.005.412-.1.508-.334 1.417-3.445.17-.578.184-.589.836-.589.632 0 .848-.144.848-.565 0-.07-.812-.127-1.81-.127-1.81 0-1.811 0-1.884.346Zm16.187-.276c0 .063-1.121 3.822-1.313 4.402-.075.228.038.244 1.416.208 1.411-.038 1.5-.058 1.545-.345.044-.284-.02-.308-.939-.346l-.986-.042.253-.685.253-.685.952.037c.904.035.959.019 1.104-.328.084-.2.153-.392.153-.425 0-.033-.446-.06-.99-.06-.545 0-.99-.054-.99-.118 0-.065.074-.312.165-.548.159-.417.196-.432 1.18-.471.922-.037 1.021-.07 1.065-.352.047-.305.015-.312-1.41-.312-.802 0-1.458.031-1.458.07Zm5.336 2.111c-.363 1.2-.69 2.26-.728 2.355-.046.114.087.173.387.173.44 0 .468-.037.719-.97.143-.533.305-.968.359-.967.054.001.304.432.555.958.416.87.502.96.952 1.009.273.03.495.002.495-.062 0-.062-.236-.549-.525-1.08-.412-.757-.474-.965-.289-.965.336 0 1.235-.858 1.355-1.294.256-.928-.306-1.338-1.832-1.338h-.789l-.659 2.181Zm5.633-1.939c-.002.464.661 4.399.759 4.504.054.058.888-.909 1.853-2.147 2.209-2.838 2.07-2.599 1.521-2.599-.41 0-.578.16-1.642 1.555l-1.185 1.554-.187-1.312c-.103-.722-.191-1.421-.195-1.555-.007-.175-.135-.242-.466-.242-.333 0-.457.066-.458.242Zm6.705-.172c0 .054-.93 3.128-1.331 4.397-.061.193.019.242.393.242.423 0 .486-.057.639-.588.094-.324.405-1.335.692-2.247.286-.911.521-1.706.521-1.766 0-.06-.206-.108-.457-.108-.252 0-.457.031-.457.07Zm10.134.103a119.52 119.52 0 0 0-.664 2.182l-.655 2.189c-.042.14.275.182 1.386.185 1.259.004 1.455-.028 1.551-.25.191-.442.153-.462-.875-.462-.81 0-.99-.039-.923-.198.046-.11.129-.42.185-.693l.103-.494h1.033c.801 0 1.054-.05 1.125-.22.227-.537.121-.611-.876-.611h-.969l.162-.555.163-.553h1.019c1.002 0 1.203-.095 1.203-.566 0-.205-2.892-.16-2.968.046Zm-110.899.732c.178.034.408.245.51.47.154.338.143.53-.062 1.09-.27.742-.687 1.175-1.353 1.404-.446.154-1.628.205-1.628.07 0-.122.744-2.493.898-2.86.12-.287.222-.327.726-.284.322.027.731.077.91.11Zm31.557-.125c.248.06.343.187.343.455 0 .494-.259.704-.869.704-.561 0-.563-.003-.342-.727.162-.53.263-.58.868-.432Zm59.17.216c.125.184-.001.621-.225.781-.095.069-.37.157-.609.196-.432.071-.435.068-.337-.487.054-.308.137-.617.185-.688.105-.153.849-.005.986.198Zm-80.41 1.255.095.658h-.607c-.333 0-.606-.036-.606-.08 0-.114.936-1.333.983-1.28.022.024.083.34.135.702Zm26.205 0 .095.658h-.606c-.334 0-.607-.036-.607-.08 0-.114.936-1.333.984-1.28.022.024.082.34.134.702Z" fill="#fff"/></svg>