<svg width="27" height="20" fill="none" xmlns="http://www.w3.org/2000/svg"><path d="M25.556 0H1.11C.498 0 0 .498 0 1.111V18.89C0 19.502.498 20 1.111 20h24.445a1.11 1.11 0 0 0 1.11-1.111V1.11A1.11 1.11 0 0 0 25.557 0Z" fill="#002781"/><path d="M26.667 1.111C26.667.498 26.169 0 25.556 0h-2.868l-7.132 5.487V0H11.11v5.487L3.978 0H1.111C.498 0 0 .498 0 1.111v1.437l6.8 5.23H0v4.444h6.8L0 17.452v1.437C0 19.502.498 20 1.111 20h2.867l7.133-5.487V20h4.445v-5.487L22.688 20h2.868a1.11 1.11 0 0 0 1.11-1.111v-1.436l-6.799-5.23h6.8V7.777h-6.8l6.8-5.23V1.11Z" fill="#E6E6E6"/><path d="M26.667 8.889H14.444V0h-2.222v8.889H0v2.222h12.222V20h2.222v-8.889h12.223V8.89Z" fill="#D10D24"/><path d="m26.112.17-9.89 7.607h1.823l8.622-6.632V1.11c0-.406-.23-.746-.555-.94Zm-8.067 12.053h-1.822l9.89 7.607c.325-.194.554-.534.554-.94v-.035l-8.622-6.632Zm-9.423 0L0 18.855v.034c0 .407.23.747.555.94l9.89-7.606H8.621Zm0-4.446h1.822L.555.17A1.096 1.096 0 0 0 0 1.11v.035l8.622 6.632Z" fill="#D10D24"/></svg>