<svg width="148" height="28" xmlns="http://www.w3.org/2000/svg" xmlns:xlink="http://www.w3.org/1999/xlink"><defs><path id="a" d="M.013.123h117.843v24.81H.013z"/><path id="c" d="M0 .123h19.094v27.704H0z"/></defs><g fill="none" fill-rule="evenodd"><g transform="translate(30.12 .05)"><mask id="b" fill="#fff"><use xlink:href="#a"/></mask><path d="M9.293 20.55a4.255 4.255 0 0 1-4.258-4.251 4.255 4.255 0 0 1 4.258-4.251 4.255 4.255 0 0 1 4.257 4.25 4.254 4.254 0 0 1-4.257 4.252Zm.232-12.886c-1.78 0-3.278.457-4.456 1.301V.335H.013v15.034c0 6.04 4.16 9.565 9.113 9.565 4.955 0 9.314-3.42 9.314-8.635 0-5.216-4.138-8.635-8.915-8.635Zm99.15 12.886a4.254 4.254 0 0 1-4.257-4.251 4.254 4.254 0 0 1 4.258-4.251 4.254 4.254 0 0 1 4.257 4.25 4.254 4.254 0 0 1-4.257 4.252Zm0-12.886c-4.775 0-9.18 3.42-9.18 8.635s4.405 8.635 9.18 8.635c4.777 0 9.181-3.42 9.181-8.635 0-5.216-4.404-8.635-9.18-8.635Zm-11.339 8.502v8.37h-5.189v-8.37c0-2.504-1.042-3.852-3.06-3.852-2.017 0-3.06 1.348-3.06 3.852v8.37h-5.189v-8.37c0-2.504-1.042-3.852-3.06-3.852-2.017 0-3.06 1.348-3.06 3.852v8.37H69.53v-8.37c0-5.216 3.558-8.502 8.249-8.502 2.409 0 4.342.869 5.654 2.418 1.313-1.55 3.246-2.418 5.654-2.418 4.69 0 8.25 3.286 8.25 8.502Zm-50.457.133v8.236H41.69v-7.838c0-2.767-1.077-4.383-3.393-4.383s-3.392 1.616-3.392 4.383v7.838h-5.19V16.3c0-5.216 3.346-8.635 8.582-8.635 5.236 0 8.582 3.42 8.582 8.635ZM26.81 2.969c0 1.61-1.416 2.847-3.08 2.847-1.665 0-3.082-1.237-3.082-2.846S22.065.123 23.73.123c1.665 0 3.081 1.238 3.081 2.847Zm-5.675 21.566h5.189V8.062h-5.19v16.473ZM58.19 20.55a4.254 4.254 0 0 1-4.257-4.251 4.254 4.254 0 0 1 4.257-4.251 4.254 4.254 0 0 1 4.258 4.25 4.254 4.254 0 0 1-4.258 4.252Zm0-12.886c-4.776 0-9.18 3.42-9.18 8.635s4.404 8.635 9.18 8.635 9.18-3.42 9.18-8.635c0-5.216-4.404-8.635-9.18-8.635Z" fill="#FFF" mask="url(#b)"/></g><g transform="translate(0 .05)"><mask id="d" fill="#fff"><use xlink:href="#c"/></mask><path d="M7.728 27.34a3.639 3.639 0 0 0 4.968-1.33l5.91-10.223a3.628 3.628 0 0 0-1.331-4.96 3.64 3.64 0 0 0-4.968 1.33L6.397 22.38a3.628 3.628 0 0 0 1.331 4.96M.488 12.163 6.398 1.94A3.64 3.64 0 0 1 11.364.61a3.628 3.628 0 0 1 1.331 4.96l-5.91 10.224a3.64 3.64 0 0 1-4.968 1.33 3.628 3.628 0 0 1-1.33-4.96" fill="#FFDC3C" mask="url(#d)"/></g></g></svg>