
<svg width="198" height="66" fill="none" xmlns="http://www.w3.org/2000/svg"><path d="m4.538 54.02-.482.877 1.55.852-.069-1.767-1 .039ZM4.5 54l.479-.878-1.479-.807V54h1Zm.014.988-1 .02 1-.02ZM1 64.195l-.164-.986-.152 1.934.316-.948Zm7.733-1.719-.447-.894.447.894Zm.33-.182.573-.82-.537-.375-.558.342.523.852ZM5.53 11.959a9.59 9.59 0 0 1 9.59-9.59v-2C8.718.37 3.53 5.558 3.53 11.96h2Zm0 41.646V11.96h-2v41.646h2Zm.007.377a9.764 9.764 0 0 1-.007-.377h-2c0 .152.003.304.009.454l1.998-.077Zm-1.516.896.035.019.964-1.752a6.197 6.197 0 0 0-.041-.023l-.958 1.756Zm1.493.09c-.007-.37-.014-.691-.014-.968h-2c0 .302.007.646.015 1.009l2-.042ZM1.164 65.18c2.458-.41 3.52-2.46 3.976-4.425.458-1.978.406-4.254.374-5.789l-2 .042c.033 1.584.07 3.603-.322 5.295-.396 1.706-1.122 2.699-2.356 2.904l.328 1.973Zm7.122-3.6c-1.98.99-3.6 1.458-4.8 1.648-1.23.195-1.953.09-2.17.017l-.632 1.898c.642.214 1.724.28 3.115.06 1.42-.225 3.237-.761 5.381-1.833l-.894-1.79Zm.255-.14a3.376 3.376 0 0 1-.255.14l.894 1.79a5.35 5.35 0 0 0 .406-.225L8.541 61.44Zm6.578 1.754a9.54 9.54 0 0 1-5.483-1.721l-1.145 1.64a11.54 11.54 0 0 0 6.628 2.08v-2Zm171.291 0H15.12v2h171.29v-2Zm9.589-9.59c0 5.296-4.293 9.59-9.589 9.59v2c6.4 0 11.589-5.19 11.589-11.59h-2Zm0-41.646v41.646h2V11.96h-2Zm-9.589-9.59c5.296 0 9.589 4.294 9.589 9.59h2c0-6.401-5.189-11.59-11.589-11.59v2Zm-171.29 0h171.29v-2H15.12v2Z" fill="#AEAFB7"/></svg>