
<svg width="136" height="136" fill="none" xmlns="http://www.w3.org/2000/svg"><path opacity=".4" fill-rule="evenodd" clip-rule="evenodd" d="M125.799 17.974v50.248c0 4.249 0 6.373-.787 7.465-.802 1.11-1.574 1.627-3.074 2.054-1.474.42-4.451-.043-10.403-.968a95.51 95.51 0 0 0-14.636-1.123C79.56 75.65 62.22 85 39.1 85c-14.153 0-21.808-1.752-25.617-3.11-.508-.182-.761-.272-1.493-.837-.44-.339-1.24-1.333-1.446-1.794-.344-.77-.344-1.19-.344-2.032V26.978c0-4.248 0-6.373.788-7.465.801-1.11 1.574-1.627 3.074-2.053 1.474-.42 4.45.043 10.402.967A95.513 95.513 0 0 0 39.1 19.55c17.34 0 34.68-9.35 57.8-9.35 14.154 0 21.809 1.752 25.618 3.111.507.181.761.272 1.493.837.439.338 1.239 1.332 1.445 1.793.344.77.344 1.191.344 2.033ZM67.999 58.6c7.367 0 13.339-5.91 13.339-13.2 0-7.29-5.972-13.2-13.339-13.2-7.366 0-13.338 5.91-13.338 13.2 0 7.29 5.972 13.2 13.338 13.2Z" fill="url(#a)" fill-opacity=".8"/><path d="M111.535 77.471a94.538 94.538 0 0 0-14.636-1.135c-17.34 0-34.68 9.449-57.8 9.449-14.153 0-21.808-1.77-25.617-3.144-.508-.183-.761-.274-1.493-.845-.44-.343-1.24-1.347-1.446-1.813-.344-.778-.344-1.203-.344-2.053V27.154c0-4.293 0-6.44.788-7.543.801-1.122 1.574-1.644 3.074-2.075 1.474-.424 4.45.043 10.402.978A94.543 94.543 0 0 0 39.1 19.648c17.34 0 34.68-9.448 57.8-9.448 6.83 0 12.147.413 16.249.994m-1.613 66.277c5.952.935 8.929 1.402 10.403.978 1.5-.431 2.272-.953 3.074-2.075.787-1.104.787-3.25.787-7.543V18.055c0-.85 0-1.276-.343-2.053-.206-.466-1.007-1.47-1.446-1.813-.732-.57-.986-.662-1.493-.845-1.971-.71-4.971-1.528-9.369-2.15m-1.613 66.277c0-7.367 5.972-13.338 13.339-13.338M33.319 43.268v18.896m69.36-28.344v18.896m-92.48 42.44c3.838 1.292 13.057 2.223 27.317 2.223 23.296 0 40.767-8.892 58.239-8.892 5.571 0 10.549.452 14.747 1.068 8.406.88 12.89.92 12.89.92M10.199 105.88c3.838 1.293 13.057 2.224 27.317 2.224 23.296 0 40.767-8.892 58.239-8.892 5.571 0 10.549.451 14.747 1.067 5.997.88 10.851 1.156 10.851 1.156m-110.68 15.021s10.199 1.499 24.46 1.499c23.295 0 41.407-8.892 58.878-8.892 5.571 0 10.55.452 14.747 1.068 5.998.879 12.89.92 12.89.92m4.151-83.153c-7.366 0-13.338-3.923-13.338-12.466 0-1.481.241-2.906.687-4.237m-88.686 7.32c0 7.367-5.971 13.338-13.338 13.338m11.54 52.538c1.31-8.053-4.228-15.082-11.594-15.082M81.338 46.64c0 7.367-5.972 13.339-13.339 13.339-7.366 0-13.338-5.972-13.338-13.339 0-7.366 5.972-13.338 13.338-13.338 7.367 0 13.339 5.972 13.339 13.338Z" stroke="url(#b)" stroke-width="2.615" stroke-linecap="round" stroke-linejoin="round"/><defs><linearGradient id="a" x1="12.712" y1="10.2" x2="132.056" y2="71.63" gradientUnits="userSpaceOnUse"><stop stop-color="#393939" stop-opacity=".27"/><stop offset="1" stop-color="#fff" stop-opacity=".38"/></linearGradient><linearGradient id="b" x1="9.31" y1="10.277" x2="146.379" y2="133.639" gradientUnits="userSpaceOnUse"><stop stop-color="#D9D9D9"/><stop offset="1" stop-color="#4D4D51"/></linearGradient></defs></svg>