
<svg width="48" height="49" fill="none" xmlns="http://www.w3.org/2000/svg"><path fill-rule="evenodd" clip-rule="evenodd" d="M25.994 22.91 10.184 6.314c1.257-.343 2.325.195 2.82.444.065.032.12.06.164.08l18.166 10.575-5.34 5.497ZM8.357 7.572l16.181 16.859-16.27 17.006s-.647-.353-.647-2.354V9.933c0-.777.096-1.459.736-2.36Zm19.217 16.892 5.643-5.93 5.278 2.985c2.822 1.6 2.145 4.864.142 6.006l-1.706.972a411.412 411.412 0 0 0-3.538 2.025l-5.819-6.058Zm-17.39 18.22 15.81-16.596 5.34 5.497L13.168 42.16c-.044.02-.1.048-.164.08-.495.25-1.563.787-2.82.444Z" fill="#fff"/></svg>