
<svg width="36" height="36" fill="none" xmlns="http://www.w3.org/2000/svg"><g opacity=".4" fill-opacity=".8"><path fill-rule="evenodd" clip-rule="evenodd" d="M28.609 31.5H18.055V16.077H28.61V31.5Z" fill="url(#a)"/><path d="M25.09 11.614H2.81V9.377c0-1.392 0-2.088.277-2.62a2.51 2.51 0 0 1 1.107-1.086C4.736 5.4 5.445 5.4 6.864 5.4h14.174c1.419 0 2.128 0 2.67.27a2.51 2.51 0 0 1 1.107 1.087c.276.532.276 1.228.276 2.62v2.237Z" fill="url(#b)"/><path d="M8.675 16.981H2.699v2.237c0 1.392 0 2.088.276 2.62.243.468.63.848 1.107 1.086.542.271 1.251.271 2.67.271h1.317c-.171-2.486-.071-3.853.606-6.214Z" fill="url(#c)"/></g><path d="M23.162 21.386a.18.18 0 0 1 .344 0l.481 1.575a.18.18 0 0 0 .172.128h1.58a.18.18 0 0 1 .11.322l-1.297 1.002a.18.18 0 0 0-.062.195l.49 1.606a.18.18 0 0 1-.282.195l-1.254-.97a.18.18 0 0 0-.22 0l-1.255.97a.18.18 0 0 1-.282-.195l.49-1.606a.18.18 0 0 0-.061-.195L20.82 23.41a.18.18 0 0 1 .11-.323h1.579a.18.18 0 0 0 .172-.127l.48-1.575Z" fill="#929394"/><path d="M2.813 11.332h22.279V9.377c0-1.392 0-2.088-.276-2.62a2.51 2.51 0 0 0-1.107-1.086c-.542-.271-1.251-.271-2.67-.271H6.865c-1.418 0-2.128 0-2.67.27A2.51 2.51 0 0 0 3.09 6.758c-.276.532-.276 1.228-.276 2.62v1.955Zm0 0v5.931m0 0v1.955c0 1.392 0 2.088.276 2.62.242.468.63.848 1.106 1.086.542.271 2.476.271 3.894.271m-5.277-5.931h5.864m9.38-1.187h-.89c-1.33 0-1.995 0-2.503.246a2.32 2.32 0 0 0-1.038.988c-.259.483-.259 1.116-.259 2.382v8.191c0 1.266 0 1.899.259 2.382.227.425.59.771 1.038.988.508.246 1.172.246 2.502.246h.892m0-15.423V31.5m0-15.423H28.61M18.057 31.5H28.61m0-15.423h.891c1.33 0 1.995 0 2.503.246.447.217.81.563 1.038.988.258.483.258 1.116.258 2.382v8.191c0 1.266 0 1.899-.258 2.382a2.32 2.32 0 0 1-1.038.988c-.508.246-1.173.246-2.503.246h-.89m0-15.423V31.5" stroke="url(#d)" stroke-width="1.8" stroke-linecap="round" stroke-linejoin="round"/><defs><linearGradient id="a" x1="3.262" y1="5.4" x2="33.764" y2="15.485" gradientUnits="userSpaceOnUse"><stop stop-color="#393939" stop-opacity=".27"/><stop offset="1" stop-color="#fff" stop-opacity=".38"/></linearGradient><linearGradient id="b" x1="3.262" y1="5.4" x2="33.764" y2="15.485" gradientUnits="userSpaceOnUse"><stop stop-color="#393939" stop-opacity=".27"/><stop offset="1" stop-color="#fff" stop-opacity=".38"/></linearGradient><linearGradient id="c" x1="3.262" y1="5.4" x2="33.764" y2="15.485" gradientUnits="userSpaceOnUse"><stop stop-color="#393939" stop-opacity=".27"/><stop offset="1" stop-color="#fff" stop-opacity=".38"/></linearGradient><linearGradient id="d" x1="2.578" y1="5.417" x2="33.658" y2="38.092" gradientUnits="userSpaceOnUse"><stop stop-color="#D9D9D9"/><stop offset="1" stop-color="#4D4D51"/></linearGradient></defs></svg>