<svg width="165" height="46" fill="none" xmlns="http://www.w3.org/2000/svg"><path d="M112.057 36.994h-6.112l8.493-27.716h6.111l-8.492 27.716Zm-3.169-26.847c-.418-.529-1.072-.793-1.963-.793H73.346l-1.657 5.435h30.544l-1.782 5.8H76.019v-.013h-6.112L64.84 37.12h6.111l3.397-11.096h27.468c.863 0 1.67-.264 2.422-.793.752-.528 1.253-1.182 1.49-1.962l3.397-11.097c.264-.83.181-1.497-.237-2.025ZM61.274 35.258c-.334 1.095-1.448 1.862-2.7 1.862H27.067c-.863 0-1.503-.264-1.92-.792-.418-.529-.516-1.183-.265-1.963l7.685-25.011h6.111l-6.863 22.344h24.446l6.864-22.344h6.111l-7.963 25.904Z" fill="#fff"/><path d="m131.106 9.328 7.726 13.89-16.246 13.89 8.52-27.78Z" fill="#098041"/><path d="m125.675 9.328 7.726 13.89-16.26 13.89 8.534-27.78Z" fill="#E97626"/></svg>